PathFileType	3	(X/Y/Z)	D:\minhoCalibration\240510\subject5_KPNP\preferred\preferred14.trc
DataRate	CameraRate	NumFrames	NumMarkers	Units	OrigDataRate	OrigDataStartFrame	OrigNumFrames
200.0	200.0	25	10	mm	200.0	298	128	
Frame#	Time	Left_Ankle_Outer1			Left_Ankle_Inner1			Left_Knee_Outer1			Left_Knee_Inner1			Left_Wrist1			Right_Wrist1			Right_Knee_Inner1			Right_Knee_Outer1			Right_Ankle_Inner1			Right_Ankle_Outer1			
		X1	Y1	Z1	X2	Y2	Z2	X3	Y3	Z3	X4	Y4	Z4	X5	Y5	Z5	X6	Y6	Z6	X7	Y7	Z7	X8	Y8	Z8	X9	Y9	Z9	X10	Y10	Z10	
298	1.48	147.50111	72.972664	-517.37006	97.214111	83.551941	-512.87354	228.42197	525.88763	-378.43561	138.40895	511.05838	-355.79095	299.10913	961.65045	-503.0499	42.010559	1172.3274	-484.62885	-188.72847	938.86566	-111.03917	-226.52527	1008.3839	-151.12047	-468.32852	778.72345	187.41934	-537.67114	814.73914	129.56194
299	1.485	147.06001	73.008064	-517.31677	96.98661	83.380646	-512.94409	228.21497	525.87927	-379.37457	138.18094	511.25867	-356.27954	299.56845	962.66388	-501.79361	41.635754	1171.9803	-485.57654	-190.46191	931.89874	-114.82875	-228.56744	1001.4933	-154.47708	-471.72415	764.38422	178.08467	-540.87909	799.9566	119.71589
300	1.49	146.58775	72.764702	-517.23615	96.675781	83.571007	-513.27185	227.82521	525.8739	-380.21735	137.73242	511.52359	-356.99658	300.50519	963.62347	-500.32932	41.687878	1171.6664	-486.59277	-191.82498	924.71118	-118.82524	-230.44604	994.5127	-157.72023	-474.92596	749.59637	168.1532	-543.78229	785.03339	109.35065
301	1.495	146.3791	72.848091	-517.38049	96.275795	83.19281	-513.07599	227.28362	525.90503	-380.96243	136.7675	511.07062	-359.63614	301.39792	964.52393	-498.79211	40.096672	1172.8885	-485.10355	-193.60141	917.22076	-122.6571	-232.15294	987.40295	-161.0271	-478.03094	734.65387	157.96774	-546.55139	769.94983	98.609322
302	1.5	146.33847	72.884026	-517.5058	96.045013	83.175316	-513.16962	226.76373	526.03339	-381.60742	135.9122	511.14981	-360.55273	302.26535	965.25543	-497.20743	40.07888	1173.1094	-485.83734	-195.14717	909.58459	-126.84289	-233.75932	980.21759	-164.36006	-480.86108	719.33191	147.1937	-549.32178	754.4975	87.172775
303	1.505	145.72255	72.601898	-517.1438	95.662041	82.757126	-512.95721	226.2354	526.19556	-382.37317	135.23608	511.48938	-361.64102	302.86765	966.04004	-496.0755	39.747879	1172.9694	-486.38223	-196.41533	901.81793	-131.23752	-235.17871	972.90729	-167.88821	-483.30377	703.8056	136.02744	-551.59991	739.01184	75.405853
304	1.51	145.48122	72.55957	-517.18726	95.423981	82.640533	-513.06097	225.589	526.25037	-382.96118	134.57524	511.67624	-363.78668	303.88214	966.92529	-494.48898	38.977459	1173.0311	-486.52579	-197.51123	893.89093	-135.81071	-236.60541	965.36426	-171.55933	-485.45908	688.12244	124.44482	-553.31396	723.04895	63.604824
305	1.515	145.19604	72.442314	-517.19226	95.299706	82.867828	-513.17126	225.08153	526.38354	-383.72293	133.76883	512.00806	-365.33951	304.4277	967.81665	-493.46872	41.334599	1171.1151	-490.54486	-198.53107	885.94318	-140.66313	-237.84174	957.60956	-175.52277	-487.33798	672.36353	112.3418	-555.37445	707.81195	50.619392
306	1.52	145.26303	72.575089	-517.29132	95.418114	82.614166	-513.50189	224.57062	526.43915	-384.39749	133.13748	512.19305	-367.06644	305.22473	968.43793	-493.23526	38.634109	1171.5159	-488.9198	-199.47054	877.84558	-145.58752	-239.11258	949.79578	-179.66968	-489.01706	655.8653	98.914085	-556.12653	691.64862	38.681274
307	1.525	145.18768	72.533333	-517.37317	95.019203	82.392555	-513.31018	224.19469	526.59363	-385.29529	132.55661	512.59991	-368.15308	306.2196	970.11029	-490.66309	40.039635	1169.8121	-491.73862	-200.29381	869.7547	-150.65358	-240.35408	941.7796	-184.10941	-490.08621	639.85681	86.201828	-556.90851	675.84589	25.749983
308	1.53	144.98926	72.344948	-517.26288	95.26532	82.537224	-513.85565	223.86229	526.64581	-386.27765	132.19759	513.12213	-369.83441	307.02856	971.06128	-489.45956	39.622314	1168.5908	-492.49927	-200.68513	861.58032	-156.04623	-241.50937	933.57257	-188.81184	-490.78445	623.7384	73.057747	-557.31323	659.93262	12.532664
309	1.535	144.91391	72.247284	-517.21313	95.087311	82.574303	-513.89709	223.77321	526.80286	-387.39996	131.78398	513.41956	-371.52927	307.66223	972.27051	-488.9201	39.646877	1167.4652	-493.32443	-201.14711	853.29822	-161.40688	-242.49547	925.14868	-193.76956	-491.01562	607.46552	59.605068	-557.30389	643.99945	-1.0055221
310	1.54	145.0083	72.204987	-517.32874	95.192261	82.330338	-513.80817	223.63739	526.98102	-388.56866	131.49646	513.23102	-373.9942	308.57065	973.11383	-487.71423	38.50684	1166.0913	-494.10501	-201.52946	844.92273	-166.96135	-243.5739	916.75635	-198.89668	-490.53061	591.13293	45.480282	-556.88226	628.17053	-14.802031
311	1.545	145.17056	72.242592	-517.46936	95.124878	82.026299	-512.93524	223.51118	527.09259	-389.67386	131.34419	513.48541	-375.59256	309.42441	974.59576	-485.40363	35.040524	1166.1343	-492.39468	-201.86612	836.52216	-172.70218	-244.43648	908.02783	-204.21567	-490.32803	574.83978	31.626341	-556.10352	612.19885	-28.953165
312	1.55	145.34499	72.317749	-517.56158	95.662331	82.106995	-513.81213	223.67195	527.40344	-390.97525	131.31369	513.68335	-377.22089	310.07507	976.18677	-484.14795	37.509033	1163.6866	-495.97931	-202.12428	827.84137	-178.49231	-245.10738	898.9118	-209.88258	-489.38318	558.52795	17.111145	-554.94391	596.36566	-43.294109
313	1.555	145.21194	72.085991	-517.54431	95.524643	81.677544	-513.16016	223.75374	527.62238	-392.25543	131.37329	513.802	-378.77246	310.81998	977.58832	-482.08923	36.474758	1162.1626	-496.92322	-201.98592	819.44147	-184.73314	-245.50597	890.21014	-215.70412	-488.2269	542.43878	2.1626148	-553.2724	580.52863	-58.017467
314	1.56	145.15242	71.973335	-517.61328	95.284126	83.104507	-515.40973	223.90427	527.84094	-393.45401	131.30336	514.08282	-380.16638	311.4791	978.8642	-480.39499	32.861961	1162.5245	-496.03253	-201.7247	810.758	-190.98442	-245.879	881.33594	-221.55734	-486.41373	526.32379	-13.02357	-551.18286	564.82336	-72.95327
315	1.565	145.39966	72.118607	-517.76794	95.321999	83.209518	-515.53284	223.9588	528.047	-394.59604	131.06715	514.414	-380.76297	311.92798	979.96393	-478.9491	35.869614	1158.9269	-499.27026	-200.87294	802.03412	-197.78871	-245.94981	872.37018	-227.57443	-484.03934	510.29886	-28.355686	-548.89215	549.43256	-88.590706
316	1.57	145.41409	72.187477	-517.79224	95.287827	82.893166	-515.43237	224.0533	528.29797	-395.74615	131.2805	514.4527	-382.80545	312.55478	981.20361	-477.12082	31.588511	1158.832	-498.54282	-200.44832	793.01581	-204.32872	-245.84129	863.34595	-233.59488	-481.08783	494.44003	-44.225548	-545.87134	533.97992	-104.07957
317	1.575	145.40994	72.112694	-517.81934	96.016159	81.512985	-513.76416	224.27342	528.45886	-396.84311	131.27605	514.49963	-384.21942	313.21902	982.36493	-475.24057	33.173122	1156.3253	-503.21655	-199.52438	784.10706	-211.25819	-245.64816	854.31757	-239.62468	-478.00687	478.63916	-59.75246	-542.47394	518.5321	-119.80185
318	1.58	145.41835	71.983894	-517.78845	95.420143	82.431274	-514.81244	224.33664	528.53125	-397.79886	131.11259	514.72601	-385.4895	313.8591	983.54608	-473.25266	32.262325	1154.7966	-504.53424	-198.32184	775.22827	-218.36852	-244.84697	845.39417	-246.02509	-474.4538	462.95993	-75.784576	-538.63214	503.18985	-135.86288
319	1.585	145.38571	71.700409	-517.82874	96.287514	81.430298	-514.01611	224.39536	528.5849	-398.69424	131.02612	515.19061	-386.25226	314.8844	984.73523	-470.46918	41.303696	1147.7677	-495.01978	-196.93591	766.45197	-225.62654	-244.17879	836.50427	-252.33313	-470.64532	447.27859	-92.261765	-534.2254	488.28671	-152.28366
320	1.59	145.56067	71.645454	-517.83276	95.738815	82.270477	-514.91193	224.47034	528.58282	-399.40985	130.79799	514.84473	-388.30316	315.64999	986.17322	-468.49911	36.444221	1147.8271	-499.202	-195.29713	757.69861	-232.98941	-243.14326	827.73145	-258.93243	-465.54697	432.04105	-108.86004	-529.3139	473.24857	-168.84113
321	1.595	145.77722	71.56308	-517.89435	96.737061	81.724495	-514.58154	224.54109	528.58643	-399.84302	130.56425	514.95233	-389.08994	316.28989	987.06799	-467.02234	26.40004	1150.6656	-509.94299	-193.49599	749.06311	-240.36618	-242.18326	818.94269	-265.42496	-460.12329	416.96698	-125.75456	-523.93994	458.38943	-185.67891
322	1.6	145.90068	71.537331	-517.93567	96.010231	81.840813	-514.25952	224.66684	528.55762	-400.44934	130.59988	515.13361	-391.091	316.84534	988.13513	-465.48581	24.710739	1149.3729	-507.22742	-191.51335	740.5697	-247.77435	-240.56729	810.03003	-272.98303	-454.16418	402.103	-142.8206	-517.91376	443.64465	-202.77222
